<svg width="24" height="24" viewBox="0 0 24 24" fill="none" xmlns="http://www.w3.org/2000/svg">
<path d="M11.9416 7.87527C9.22328 6.5967 8.20844 5.9834 5.48607 6.00034C5.21585 6.00202 5 6.22427 5 6.49449V14.9918C5 15.2616 5.21548 15.4821 5.48489 15.4958C8.39049 15.6436 9.49047 16.2333 11.8411 17.8879C11.9075 17.9346 12 17.8879 12 17.8068V7.96623C12 7.92747 11.9767 7.89177 11.9416 7.87527Z" stroke="#7A869A" stroke-width="1.5"/>
<path d="M12.0584 7.87527C14.7767 6.5967 15.7916 5.9834 18.5139 6.00034C18.7841 6.00202 19 6.22427 19 6.49449V14.9918C19 15.2616 18.7845 15.4821 18.5151 15.4958C15.6095 15.6436 14.5095 16.2333 12.1589 17.8879C12.0925 17.9346 12 17.8879 12 17.8068V7.96623C12 7.92747 12.0233 7.89177 12.0584 7.87527Z" stroke="#7A869A" stroke-width="1.5"/>
</svg>
