<svg width="259" height="262" viewBox="0 0 259 262" fill="none" xmlns="http://www.w3.org/2000/svg">
<path d="M187.706 90.9208L187.611 90.8798C187.557 90.8593 187.503 90.8388 187.456 90.791C187.378 90.7068 187.321 90.6057 187.288 90.4955C187.255 90.3854 187.248 90.269 187.266 90.1555L192.494 57.8626L217.007 82.6392L191.513 93.5994C191.442 93.6283 191.366 93.6422 191.29 93.6404H191.188C191.155 93.6199 191.121 93.5926 191.053 93.5242C190.104 92.4568 188.97 91.5744 187.706 90.9208V90.9208ZM223.262 88.9529L249.472 115.438C254.916 120.945 257.641 123.692 258.635 126.876C258.784 127.348 258.905 127.819 259 128.304L196.362 101.498C196.328 101.484 196.294 101.471 196.26 101.457C196.01 101.355 195.719 101.239 195.719 100.979C195.719 100.719 196.017 100.596 196.267 100.494L196.348 100.46L223.262 88.9529ZM257.932 136.805C256.579 139.374 253.942 142.039 249.479 146.555L219.928 176.409L181.708 168.366L181.505 168.325C181.167 168.271 180.808 168.209 180.808 167.902C180.663 166.309 180.195 164.763 179.433 163.36C178.671 161.958 177.632 160.729 176.379 159.75C176.224 159.593 176.264 159.347 176.312 159.121C176.312 159.087 176.312 159.053 176.325 159.026L183.513 114.433L183.54 114.283C183.581 113.941 183.642 113.545 183.946 113.545C185.487 113.351 186.973 112.85 188.32 112.07C189.667 111.29 190.847 110.246 191.79 109.001C191.851 108.933 191.892 108.858 191.973 108.817C192.189 108.714 192.446 108.817 192.669 108.912L257.925 136.805H257.932ZM213.132 183.276L164.538 232.378L172.856 180.721L172.87 180.652C172.876 180.584 172.89 180.516 172.91 180.454C172.978 180.29 173.154 180.222 173.323 180.153L173.404 180.119C175.225 179.334 176.836 178.123 178.104 176.587C178.266 176.395 178.462 176.211 178.712 176.177C178.777 176.166 178.843 176.166 178.908 176.177L213.125 183.283L213.132 183.276ZM154.253 242.771L148.776 248.306L88.22 159.873C88.1981 159.841 88.1755 159.809 88.1524 159.777C88.0577 159.648 87.9563 159.518 87.9766 159.367C87.9766 159.258 88.0509 159.162 88.1253 159.08L88.1929 158.992C88.3755 158.718 88.5311 158.445 88.7001 158.151L88.8354 157.912L88.8556 157.891C88.9503 157.727 89.0382 157.57 89.2005 157.481C89.3425 157.413 89.5386 157.44 89.6942 157.475L156.782 171.455C156.97 171.484 157.147 171.562 157.296 171.68C157.384 171.769 157.404 171.865 157.425 171.974C157.893 173.763 158.764 175.419 159.969 176.812C161.175 178.205 162.683 179.297 164.376 180.003C164.566 180.099 164.484 180.311 164.396 180.536C164.353 180.635 164.319 180.738 164.295 180.844C163.45 186.037 156.201 230.711 154.253 242.771ZM142.811 254.326C138.774 258.364 136.394 260.503 133.703 261.364C131.049 262.212 128.201 262.212 125.547 261.364C122.396 260.353 119.671 257.606 114.228 252.098L53.4148 190.649L69.2993 165.756C69.3737 165.633 69.4481 165.524 69.5698 165.435C69.7388 165.312 69.9823 165.367 70.1851 165.435C73.8311 166.547 77.7456 166.346 81.2617 164.868C81.4442 164.8 81.6268 164.752 81.7688 164.882C81.8398 164.947 81.9034 165.02 81.9582 165.1L142.811 254.333V254.326ZM47.552 184.725L33.6015 170.628L61.1508 158.752C61.2212 158.721 61.2971 158.705 61.374 158.705C61.6039 158.705 61.7391 158.937 61.8608 159.149C62.1377 159.579 62.4309 159.999 62.7399 160.406L62.8278 160.515C62.909 160.631 62.8549 160.748 62.7737 160.857L47.5587 184.725H47.552ZM27.4276 164.39L9.77818 146.555C6.77575 143.522 4.59831 141.321 3.08357 139.429L56.7486 150.676C56.816 150.688 56.8836 150.7 56.9515 150.71C57.2828 150.765 57.648 150.826 57.648 151.14C57.648 151.482 57.249 151.639 56.9109 151.769L56.7554 151.837L27.4276 164.39ZM0 130.259C0.0611586 129.11 0.265643 127.973 0.608601 126.876C1.60941 123.692 4.32782 120.945 9.77818 115.438L32.364 92.6154C42.7632 107.866 53.1906 123.097 63.6461 138.308C63.8286 138.554 64.0315 138.827 63.8219 139.032C62.8346 140.132 61.8473 141.335 61.1508 142.64C61.0752 142.808 60.9589 142.954 60.8127 143.064C60.7248 143.118 60.6301 143.098 60.5287 143.077H60.5152L0 130.252V130.259ZM38.4094 86.5067L68.7651 55.8195C71.6255 57.0836 82.019 61.5183 91.3036 65.4814C98.3363 68.488 104.747 71.2212 106.762 72.1095C106.965 72.1915 107.147 72.2735 107.235 72.4785C107.289 72.6015 107.262 72.7586 107.235 72.8885C106.755 75.1036 106.826 77.4046 107.443 79.5849C108.061 81.7652 109.205 83.7563 110.772 85.3792C110.975 85.5842 110.772 85.8781 110.596 86.1309L110.502 86.2744L79.6658 134.536C79.5846 134.673 79.5102 134.789 79.375 134.878C79.2127 134.98 78.9828 134.932 78.7934 134.885C77.5941 134.567 76.3612 134.397 75.1216 134.379C74.0126 134.379 72.8089 134.584 71.5917 134.809H71.5849C71.4497 134.83 71.328 134.857 71.2198 134.775C71.1003 134.677 70.9975 134.559 70.9155 134.427L38.4027 86.5067H38.4094ZM74.9119 49.622L114.228 9.8947C119.671 4.3941 122.396 1.64039 125.547 0.635935C128.201 -0.211978 131.049 -0.211978 133.703 0.635935C136.854 1.64039 139.579 4.3941 145.023 9.8947L153.543 18.5043L125.581 62.2631C125.512 62.3905 125.418 62.5021 125.304 62.5911C125.135 62.7072 124.898 62.6594 124.695 62.5911C122.491 61.915 120.156 61.792 117.894 62.2325C115.632 62.673 113.51 63.6638 111.712 65.1193C111.529 65.3106 111.259 65.2013 111.029 65.0988C107.377 63.493 78.976 51.3644 74.9119 49.622V49.622ZM159.48 24.5037L185.299 50.5923L179.077 89.5269V89.6294C179.072 89.7181 179.053 89.8056 179.023 89.889C178.956 90.0257 178.82 90.053 178.685 90.094C177.355 90.5012 176.102 91.1318 174.979 91.9595C174.931 91.9942 174.886 92.0331 174.844 92.0756C174.77 92.1576 174.695 92.2328 174.574 92.2464C174.475 92.2495 174.376 92.2333 174.283 92.1986L134.94 75.3074L134.866 75.2732C134.616 75.1707 134.318 75.0477 134.318 74.788C134.087 72.5727 133.371 70.437 132.222 68.5358C132.032 68.2215 131.823 67.8935 131.985 67.5724L159.48 24.5037ZM132.891 83.3088L169.772 99.0931C169.975 99.1888 170.198 99.2776 170.286 99.4895C170.322 99.6169 170.322 99.7516 170.286 99.8789C170.178 100.426 170.084 101.047 170.084 101.676V102.721C170.084 102.981 169.82 103.09 169.576 103.193L169.502 103.22C163.659 105.742 87.4761 138.568 87.3612 138.568C87.2462 138.568 87.1245 138.568 87.0096 138.451C86.8067 138.246 87.0096 137.959 87.1921 137.7C87.2244 137.655 87.256 137.609 87.2868 137.563L117.595 90.1419L117.649 90.0599C117.825 89.7729 118.028 89.4517 118.352 89.4517L118.657 89.4996C119.347 89.5952 119.955 89.6841 120.57 89.6841C125.169 89.6841 129.429 87.4223 131.999 83.5548C132.06 83.4515 132.138 83.3592 132.229 83.2815C132.411 83.1448 132.682 83.2132 132.891 83.3088V83.3088ZM90.6544 146.07L173.695 110.286C173.695 110.286 173.816 110.286 173.931 110.402C174.384 110.86 174.77 111.167 175.142 111.454L175.324 111.57C175.493 111.666 175.662 111.775 175.676 111.953C175.676 112.021 175.676 112.062 175.662 112.124L168.548 156.279L168.521 156.456C168.474 156.798 168.427 157.188 168.109 157.188C166.212 157.317 164.376 157.912 162.758 158.92C161.14 159.929 159.79 161.321 158.824 162.975L158.791 163.03C158.696 163.187 158.608 163.337 158.452 163.419C158.31 163.488 158.128 163.46 157.979 163.426L91.7566 149.623C91.689 149.61 90.7288 146.077 90.6544 146.07V146.07Z" fill="url(#paint0_radial)"/>
<defs>
<radialGradient id="paint0_radial" cx="0" cy="0" r="1" gradientUnits="userSpaceOnUse" gradientTransform="translate(-8.69574 127.303) rotate(90) scale(261.712 299.025)">
<stop stop-color="#20C6B7"/>
<stop offset="1" stop-color="#4D9ABF"/>
</radialGradient>
</defs>
</svg>
