<svg xmlns="http://www.w3.org/2000/svg" width="74" height="74" fill="none" xmlns:v="https://vecta.io/nano"><path fill-rule="evenodd" d="M37 74c20.435 0 37-16.565 37-37S57.435 0 37 0 0 16.566 0 37s16.566 37 37 37zm0-2c19.33 0 35-15.67 35-35S56.33 2 37 2 2 17.67 2 37s15.67 35 35 35z" fill="url(#A)"/><g stroke-linecap="round" stroke-linejoin="round"><path d="M36 48V36c0-6.627-5.373-12-12-12h0c-6.627 0-12 5.373-12 12v4m0 8v-8m0 0h24" stroke="#0066b3"/><path d="M25.5 48V24L38 36.5L50.5 24V48" stroke="#248de0"/><path opacity=".6" d="M41 23.5H61L41.5 48H63" stroke="#33adff"/></g><defs><radialGradient id="A" cx="0" cy="0" r="1" gradientUnits="userSpaceOnUse" gradientTransform="translate(37 37) rotate(67.2714) scale(28.2721)"><stop stop-color="#94f5d8"/><stop offset=".198" stop-color="#00ffc2"/><stop offset=".505" stop-color="#00abec"/><stop offset=".802" stop-color="#363f99"/><stop offset="1" stop-color="#94f5d8"/></radialGradient></defs></svg>