<svg width="234" height="234" viewBox="0 0 234 234" fill="none" xmlns="http://www.w3.org/2000/svg">
<path d="M209 116.918H150.455V133.63H190.6C184.745 158.699 166.345 179.589 142.091 187.945L45.9091 91.8493C55.9455 62.6027 84.3818 41.7123 117 41.7123C142.091 41.7123 164.673 54.2466 178.891 73.4658L191.436 62.6027C174.709 40.0411 147.945 25 117 25C73.5091 25 36.7091 55.9178 27.5091 96.863L137.909 207.164C178.055 197.137 209 160.37 209 116.918ZM25 117.753C25 141.151 34.2 163.712 51.7636 181.26C69.3273 198.808 92.7455 208 115.327 208L25 117.753Z" fill="white"/>
<path d="M117 0C52.65 0 0 52.65 0 117C0 181.35 52.65 234 117 234C181.35 234 234 181.35 234 117C234 52.65 181.35 0 117 0ZM51.8143 182.186C34.2643 164.636 25.0714 141.236 25.0714 118.671L116.164 208.929C92.7643 208.093 69.3643 199.736 51.8143 182.186ZM137.057 206.421L27.5786 96.9429C36.7714 55.9929 73.5429 25.0714 117 25.0714C147.921 25.0714 174.664 40.1143 191.379 62.6786L178.843 73.5429C164.636 54.3214 142.071 41.7857 117 41.7857C84.4071 41.7857 56.8286 62.6786 45.9643 91.9286L142.071 188.036C166.307 179.679 184.693 158.786 190.543 133.714H150.429V117H208.929C208.929 160.457 178.007 197.229 137.057 206.421Z" fill="#663399"/>
</svg>
