<svg width="137" height="125" viewBox="0 0 137 125" fill="none" xmlns="http://www.w3.org/2000/svg">
<path d="M124.35 56.2699C124.35 49.3799 116.24 43.2699 103.77 39.5399C106.77 26.8699 105.46 16.7899 99.4896 13.3799C98.0258 12.5669 96.3739 12.153 94.6996 12.1799C89.1296 12.1799 82.0897 16.0699 74.9797 22.7999C67.8697 16.1199 60.8496 12.2499 55.2896 12.2499C53.5894 12.2123 51.9105 12.6338 50.4296 13.4699C44.4896 16.8899 43.2597 26.9099 46.2197 39.5199C33.8097 43.2299 25.7397 49.2899 25.7197 56.1499C25.6997 63.0099 33.8397 69.1499 46.3097 72.8699C43.3097 85.5499 44.6096 95.6199 50.5896 99.0299C52.0481 99.8474 53.698 100.262 55.3697 100.23C60.9497 100.23 67.9896 96.3399 75.0996 89.6099C82.1996 96.2899 89.2196 100.16 94.7896 100.16C96.4891 100.191 98.1664 99.7701 99.6497 98.9399C105.59 95.5199 106.81 85.4999 103.86 72.9399C116.27 69.1799 124.34 63.1199 124.35 56.2699ZM79.5596 25.0599C87.7496 17.7299 92.8697 16.9399 94.6897 16.9399C95.5337 16.9128 96.3696 17.1131 97.1096 17.5199C99.9696 19.1499 101.11 24.8999 100.2 32.5199C99.9666 34.4659 99.6328 36.3985 99.1996 38.3099C95.0559 37.3467 90.8536 36.6553 86.6197 36.2399C84.0984 32.7018 81.3457 29.3344 78.3796 26.1599C78.7496 25.7899 79.1496 25.4199 79.5596 25.0599ZM54.7696 61.9399C55.5496 63.4399 56.3796 64.9399 57.2396 66.4499C58.0996 67.9599 58.9996 69.4899 59.9996 70.9999C57.2896 70.6099 54.6597 70.1199 52.1597 69.5399C52.8597 66.9999 53.7496 64.4999 54.7696 61.9399ZM51.9996 42.8999C54.5296 42.3099 57.1796 41.8199 59.9296 41.4399C58.9296 42.9199 58.0696 44.4399 57.1696 46.0299C56.2696 47.6199 55.4796 49.0299 54.7096 50.5499C53.6896 47.9499 52.7863 45.3999 51.9996 42.8999ZM57.2096 56.2399C58.4496 53.6199 59.813 50.9999 61.2997 48.3799C62.7997 45.7599 64.4096 43.2099 66.0696 40.7699C68.9796 40.5499 71.9796 40.4299 75.0696 40.4399C78.1596 40.4499 81.0696 40.5599 83.9596 40.7899C85.6196 43.2099 87.2096 45.7899 88.7096 48.3399C90.2096 50.8899 91.5897 53.5599 92.8297 56.1699C91.5997 58.7899 90.2296 61.4199 88.7496 64.0199C87.2696 66.6199 85.6397 69.1999 83.9797 71.6399C81.0697 71.8699 78.0697 71.9799 74.9797 71.9799C71.8897 71.9799 68.9796 71.8499 66.0896 71.6199C64.4296 69.1999 62.8297 66.6799 61.3297 64.0699C59.8297 61.4599 58.4996 58.8499 57.2496 56.2399H57.2096ZM90.0696 41.4699C92.7896 41.8499 95.4197 42.3399 97.9097 42.9199C97.1697 45.3899 96.2896 47.9199 95.2696 50.4699C94.4796 48.9699 93.6596 47.4699 92.7896 45.9599C91.9196 44.4499 90.9996 42.9299 90.1096 41.4699H90.0696ZM92.8297 66.3899C93.6897 64.8766 94.5096 63.3666 95.2896 61.8599C96.2896 64.4599 97.2896 67.0199 97.9896 69.5199C95.4696 70.1099 92.8196 70.5899 90.0696 70.9699C91.0363 69.4899 91.9697 67.9632 92.8697 66.3899H92.8297ZM74.9996 29.5599C76.7996 31.4799 78.5697 33.5599 80.2997 35.7899C78.5897 35.7199 76.8396 35.6699 75.0696 35.6699C73.2996 35.6699 71.4896 35.6699 69.7396 35.7899C71.4496 33.5699 73.1996 31.4799 74.9996 29.5599ZM52.8196 17.5599C53.5783 17.1564 54.4311 16.963 55.2896 16.9999C57.0913 17.075 58.8582 17.5209 60.4797 18.3099C64.1444 20.0377 67.518 22.325 70.4797 25.0899L71.6497 26.1599C68.7139 29.3112 65.9881 32.6517 63.4896 36.1599C59.2329 36.5723 55.0073 37.2604 50.8396 38.2199C50.3996 36.2799 50.0396 34.3799 49.8396 32.5499C48.7996 24.9999 49.9996 19.2399 52.8096 17.5999L52.8196 17.5599ZM47.5296 68.2599C45.6507 67.6863 43.8017 67.0188 41.9897 66.2599C34.8897 63.2599 30.4897 59.4099 30.4897 56.1199C30.4897 52.8299 34.9096 48.9999 41.9996 46.0499C43.7794 45.3127 45.595 44.6652 47.4397 44.1099C48.6898 48.2529 50.2131 52.3084 51.9996 56.2499C50.2511 60.1522 48.758 64.164 47.5296 68.2599ZM70.5296 87.3599C62.3396 94.6899 57.2196 95.4699 55.3896 95.4699C54.5455 95.498 53.7094 95.2976 52.9697 94.8899C50.1097 93.2599 48.9696 87.5099 49.8796 79.8899C50.1119 77.9471 50.4457 76.0178 50.8796 74.1099C55.0246 75.0647 59.2266 75.7528 63.4596 76.1699C65.9779 79.7103 68.7307 83.0779 71.6996 86.2499L70.5296 87.3599ZM75.0996 82.8499C73.2996 80.9299 71.5296 78.8499 69.7896 76.6199C71.5096 76.6999 73.2596 76.7399 75.0296 76.7399C76.7996 76.7399 78.6096 76.7399 80.3596 76.6299C78.6296 78.8499 76.8696 80.9299 75.0896 82.8499H75.0996ZM97.2796 94.8499C96.5209 95.2656 95.6643 95.4694 94.7997 95.4399C92.9797 95.4399 87.7996 94.6399 79.6396 87.3399L78.4697 86.2699C81.402 83.1183 84.1246 79.7778 86.6197 76.2699C90.8805 75.8633 95.1097 75.1751 99.2796 74.2099C99.7196 76.1499 100.07 78.0499 100.28 79.8799C101.27 87.4199 100.12 93.1799 97.2696 94.8099L97.2796 94.8499ZM108.08 66.4099C106.37 67.1099 104.56 67.7599 102.64 68.3399C101.385 64.1972 99.858 60.1418 98.0696 56.1999C99.8262 52.302 101.326 48.2935 102.56 44.1999C104.439 44.7735 106.288 45.441 108.1 46.1999C115.19 49.1999 119.6 53.0499 119.59 56.3399C119.58 59.6299 115.17 63.4199 108.07 66.3699L108.08 66.4099ZM74.9996 65.3899C76.8153 65.3919 78.5907 64.8554 80.1015 63.8483C81.6122 62.8413 82.7904 61.4088 83.487 59.7322C84.1837 58.0555 84.3675 56.2099 84.0152 54.4288C83.6629 52.6476 82.7904 51.011 81.5079 49.7257C80.2255 48.4405 78.5907 47.5644 76.8104 47.2082C75.03 46.8521 73.184 47.0319 71.5059 47.7249C69.8277 48.4178 68.3927 49.5929 67.3823 51.1014C66.372 52.61 65.8316 54.3843 65.8297 56.1999C65.827 57.4058 66.0623 58.6004 66.5219 59.7152C66.9816 60.8301 67.6566 61.8434 68.5084 62.697C69.3602 63.5506 70.372 64.2279 71.4858 64.6899C72.5997 65.152 73.7937 65.3899 74.9996 65.3899V65.3899ZM13.9996 0.879883V111.53H136.07V0.879883H13.9996ZM131.3 106.77H18.7796V5.64988H131.3V106.77ZM46.2996 72.8699C43.2996 85.5499 44.5997 95.6199 50.5797 99.0299C52.0381 99.8474 53.688 100.262 55.3596 100.23C60.9396 100.23 67.9796 96.3399 75.0896 89.6099C82.1896 96.2899 89.2096 100.16 94.7796 100.16C96.4791 100.191 98.1564 99.7701 99.6396 98.9399C105.58 95.5199 106.8 85.4999 103.85 72.9399C116.26 69.2199 124.33 63.1599 124.34 56.3099C124.35 49.4599 116.23 43.3099 103.76 39.5799C106.76 26.9099 105.45 16.8299 99.4797 13.4199C98.0158 12.6069 96.3639 12.193 94.6897 12.2199C89.1197 12.2199 82.0797 16.1099 74.9697 22.8399C67.8597 16.1599 60.8396 12.2899 55.2796 12.2899C53.5794 12.2523 51.9005 12.6738 50.4196 13.5099C44.4796 16.9299 43.2496 26.9499 46.2096 39.5599C33.7996 43.2699 25.7296 49.3299 25.7096 56.1899C25.6896 63.0499 33.8397 69.1299 46.3097 72.8699H46.2996ZM70.5097 87.3599C62.3197 94.6899 57.1997 95.4699 55.3697 95.4699C54.5255 95.498 53.6894 95.2976 52.9496 94.8899C50.0896 93.2599 48.9496 87.5099 49.8596 79.8899C50.0919 77.9471 50.4257 76.0178 50.8596 74.1099C55.0046 75.0647 59.2066 75.7528 63.4397 76.1699C65.9579 79.7103 68.7107 83.0779 71.6796 86.2499L70.5097 87.3599ZM95.2997 50.4699C94.5097 48.9699 93.6896 47.4699 92.8196 45.9599C91.9496 44.4499 91.0196 42.9599 90.0996 41.4699C92.8196 41.8499 95.4497 42.3399 97.9397 42.9199C97.2097 45.3899 96.3296 47.9199 95.3096 50.4699H95.2997ZM98.0196 69.4699C95.4996 70.0599 92.8496 70.5399 90.0996 70.9199C91.0396 69.4399 91.9596 67.9132 92.8596 66.3399C93.7596 64.7665 94.5796 63.2565 95.3196 61.8099C96.3696 64.4599 97.2796 66.9999 97.9996 69.5199L98.0196 69.4699ZM92.8096 56.1199C91.5796 58.7399 90.2097 61.3699 88.7297 63.9699C87.2497 66.5699 85.6196 69.1499 83.9596 71.5899C81.0496 71.8199 78.0496 71.9299 74.9596 71.9299C71.8696 71.9299 68.9596 71.7999 66.0696 71.5699C64.4096 69.1499 62.8096 66.6299 61.3096 64.0199C59.8096 61.4099 58.4397 58.7999 57.1897 56.1899C58.4297 53.5699 59.793 50.9499 61.2796 48.3299C62.7796 45.7099 64.3897 43.1599 66.0497 40.7199C68.9597 40.4999 71.9597 40.3799 75.0497 40.3899C78.1397 40.3999 81.0497 40.5099 83.9397 40.7399C85.5997 43.1599 87.1897 45.7399 88.6897 48.2899C90.1897 50.8399 91.5796 53.5599 92.8196 56.1699L92.8096 56.1199ZM59.9996 70.9999C57.2896 70.6099 54.6597 70.1199 52.1597 69.5399C52.8997 67.0799 53.7896 64.5399 54.8096 61.9899C55.5896 63.4899 56.4196 64.9899 57.2796 66.4999C58.1396 68.0099 58.9996 69.4899 59.9996 70.9999ZM57.2096 45.9999C56.3396 47.4999 55.5196 48.9999 54.7496 50.5199C53.703 47.9399 52.7863 45.3999 51.9996 42.8999C54.5296 42.3099 57.1796 41.8199 59.9296 41.4399C58.9996 42.9199 58.1096 44.4499 57.2096 45.9999ZM75.0896 82.8499C73.2896 80.9299 71.5196 78.8499 69.7796 76.6199C71.4996 76.6999 73.2496 76.7399 75.0196 76.7399C76.7896 76.7399 78.5996 76.7399 80.3496 76.6299C78.6296 78.8499 76.8696 80.9299 75.0896 82.8499ZM97.2696 94.8499C96.5109 95.2656 95.6543 95.4694 94.7896 95.4399C92.9696 95.4399 87.7896 94.6399 79.6296 87.3399L78.4596 86.2699C81.392 83.1183 84.1146 79.7778 86.6096 76.2699C90.8705 75.8633 95.0997 75.1751 99.2696 74.2099C99.7096 76.1499 100.06 78.0499 100.27 79.8799C101.27 87.4199 100.12 93.1799 97.2696 94.8099V94.8499ZM102.55 44.1899C104.429 44.7635 106.278 45.431 108.09 46.1899C115.18 49.1899 119.59 53.0399 119.58 56.3299C119.57 59.6199 115.17 63.4899 108.07 66.4399C106.36 67.1399 104.55 67.7899 102.63 68.3699C101.375 64.2272 99.848 60.1718 98.0596 56.2299C99.8195 52.306 101.319 48.2706 102.55 44.1499V44.1899ZM79.5497 25.0999C87.7397 17.7699 92.8596 16.9799 94.6796 16.9799C95.5237 16.9528 96.3596 17.1531 97.0996 17.5599C99.9596 19.1899 101.1 24.9399 100.19 32.5599C99.9566 34.5059 99.6228 36.4385 99.1897 38.3499C95.0459 37.3867 90.8436 36.6953 86.6096 36.2799C84.0884 32.7418 81.3357 29.3744 78.3697 26.1999C78.7497 25.7899 79.1496 25.4199 79.5596 25.0599L79.5497 25.0999ZM74.9996 29.5599C76.7996 31.4799 78.5697 33.5599 80.2997 35.7899C78.5897 35.7199 76.8396 35.6699 75.0696 35.6699C73.2996 35.6699 71.4896 35.6699 69.7396 35.7899C71.4496 33.5699 73.1996 31.4799 74.9996 29.5599ZM52.8196 17.5599C53.5783 17.1564 54.4311 16.963 55.2896 16.9999C57.0913 17.075 58.8582 17.5209 60.4797 18.3099C64.1444 20.0377 67.518 22.325 70.4797 25.0899L71.6497 26.1599C68.7139 29.3112 65.9881 32.6517 63.4896 36.1599C59.2329 36.5723 55.0073 37.2604 50.8396 38.2199C50.3996 36.2799 50.0396 34.3799 49.8396 32.5499C48.7996 24.9999 49.9996 19.2399 52.8096 17.5999L52.8196 17.5599ZM41.9996 46.0499C43.7794 45.3127 45.595 44.6652 47.4397 44.1099C48.6898 48.2529 50.2131 52.3084 51.9996 56.2499C50.2447 60.1484 48.7449 64.1569 47.5097 68.2499C45.6307 67.6763 43.7817 67.0088 41.9697 66.2499C34.8697 63.2499 30.4697 59.3999 30.4697 56.1099C30.4697 52.8199 34.9096 48.9999 41.9996 46.0499ZM74.9996 47.0499C73.184 47.0479 71.4086 47.5844 69.8978 48.5914C68.3871 49.5985 67.2089 51.0309 66.5123 52.7076C65.8156 54.3843 65.6318 56.2299 65.9841 58.011C66.3364 59.7921 67.2089 61.4288 68.4913 62.714C69.7738 63.9993 71.4086 64.8754 73.1889 65.2315C74.9693 65.5877 76.8153 65.4079 78.4934 64.7149C80.1716 64.0219 81.6066 62.8469 82.617 61.3383C83.6273 59.8298 84.1677 58.0555 84.1696 56.2399C84.1789 55.0298 83.9485 53.8298 83.4918 52.7092C83.0351 51.5885 82.3611 50.5694 81.5087 49.7104C80.6563 48.8515 79.6422 48.1698 78.5251 47.7045C77.408 47.2393 76.2098 46.9999 74.9996 46.9999V47.0499ZM74.9996 47.0499C73.184 47.0479 71.4086 47.5844 69.8978 48.5914C68.3871 49.5985 67.2089 51.0309 66.5123 52.7076C65.8156 54.3843 65.6318 56.2299 65.9841 58.011C66.3364 59.7921 67.2089 61.4288 68.4913 62.714C69.7738 63.9993 71.4086 64.8754 73.1889 65.2315C74.9693 65.5877 76.8153 65.4079 78.4934 64.7149C80.1716 64.0219 81.6066 62.8469 82.617 61.3383C83.6273 59.8298 84.1677 58.0555 84.1696 56.2399C84.1789 55.0298 83.9485 53.8298 83.4918 52.7092C83.0351 51.5885 82.3611 50.5694 81.5087 49.7104C80.6563 48.8515 79.6422 48.1698 78.5251 47.7045C77.408 47.2393 76.2098 46.9999 74.9996 46.9999V47.0499ZM74.9996 47.0499C73.184 47.0479 71.4086 47.5844 69.8978 48.5914C68.3871 49.5985 67.2089 51.0309 66.5123 52.7076C65.8156 54.3843 65.6318 56.2299 65.9841 58.011C66.3364 59.7921 67.2089 61.4288 68.4913 62.714C69.7738 63.9993 71.4086 64.8754 73.1889 65.2315C74.9693 65.5877 76.8153 65.4079 78.4934 64.7149C80.1716 64.0219 81.6066 62.8469 82.617 61.3383C83.6273 59.8298 84.1677 58.0555 84.1696 56.2399C84.1789 55.0298 83.9485 53.8298 83.4918 52.7092C83.0351 51.5885 82.3611 50.5694 81.5087 49.7104C80.6563 48.8515 79.6422 48.1698 78.5251 47.7045C77.408 47.2393 76.2098 46.9999 74.9996 46.9999V47.0499ZM124.35 56.2899C124.35 49.3999 116.24 43.2899 103.77 39.5599C106.77 26.8899 105.46 16.8099 99.4896 13.3999C98.0258 12.5869 96.3739 12.173 94.6996 12.1999C89.1296 12.1999 82.0897 16.0899 74.9797 22.8199C67.8697 16.1399 60.8496 12.2699 55.2896 12.2699C53.5894 12.2323 51.9105 12.6538 50.4296 13.4899C44.4896 16.9099 43.2597 26.9299 46.2197 39.5399C33.8097 43.2499 25.7397 49.3099 25.7197 56.1699C25.6997 63.0299 33.8397 69.1699 46.3097 72.8899C43.3097 85.5699 44.6096 95.6399 50.5896 99.0499C52.0481 99.8674 53.698 100.282 55.3697 100.25C60.9497 100.25 67.9896 96.3599 75.0996 89.6299C82.1996 96.3099 89.2196 100.18 94.7896 100.18C96.4891 100.211 98.1664 99.7901 99.6497 98.9599C105.59 95.5399 106.81 85.5199 103.86 72.9599C116.27 69.1799 124.34 63.1199 124.35 56.2699V56.2899ZM79.5596 25.0599C87.7496 17.7299 92.8697 16.9399 94.6897 16.9399C95.5337 16.9128 96.3696 17.1131 97.1096 17.5199C99.9696 19.1499 101.11 24.8999 100.2 32.5199C99.9666 34.4659 99.6328 36.3985 99.1996 38.3099C95.0559 37.3467 90.8536 36.6553 86.6197 36.2399C84.0984 32.7018 81.3457 29.3344 78.3796 26.1599C78.7496 25.7899 79.1496 25.4199 79.5596 25.0599ZM54.7696 61.9399C55.5496 63.4399 56.3796 64.9399 57.2396 66.4499C58.0996 67.9599 58.9996 69.4899 59.9996 70.9999C57.2896 70.6099 54.6597 70.1199 52.1597 69.5399C52.8597 66.9999 53.7496 64.4999 54.7696 61.9399ZM51.9996 42.8999C54.5296 42.3099 57.1796 41.8199 59.9296 41.4399C58.9296 42.9199 58.0696 44.4399 57.1696 46.0299C56.2696 47.6199 55.4796 49.0299 54.7096 50.5499C53.6896 47.9499 52.7863 45.3999 51.9996 42.8999ZM57.2096 56.2399C58.4496 53.6199 59.813 50.9999 61.2997 48.3799C62.7997 45.7599 64.4096 43.2099 66.0696 40.7699C68.9796 40.5499 71.9796 40.4299 75.0696 40.4399C78.1596 40.4499 81.0696 40.5599 83.9596 40.7899C85.6196 43.2099 87.2096 45.7899 88.7096 48.3399C90.2096 50.8899 91.5897 53.5599 92.8297 56.1699C91.5997 58.7899 90.2296 61.4199 88.7496 64.0199C87.2696 66.6199 85.6397 69.1999 83.9797 71.6399C81.0697 71.8699 78.0697 71.9799 74.9797 71.9799C71.8897 71.9799 68.9796 71.8499 66.0896 71.6199C64.4296 69.1999 62.8297 66.6799 61.3297 64.0699C59.8297 61.4599 58.4996 58.8499 57.2496 56.2399H57.2096ZM90.0696 41.4699C92.7896 41.8499 95.4197 42.3399 97.9097 42.9199C97.1697 45.3899 96.2896 47.9199 95.2696 50.4699C94.4796 48.9699 93.6596 47.4699 92.7896 45.9599C91.9196 44.4499 90.9996 42.9299 90.1096 41.4699H90.0696ZM92.8297 66.3899C93.6897 64.8766 94.5096 63.3666 95.2896 61.8599C96.2896 64.4599 97.2896 67.0199 97.9896 69.5199C95.4696 70.1099 92.8196 70.5899 90.0696 70.9699C91.0363 69.4899 91.9697 67.9632 92.8697 66.3899H92.8297ZM74.9996 29.5599C76.7996 31.4799 78.5697 33.5599 80.2997 35.7899C78.5897 35.7199 76.8396 35.6699 75.0696 35.6699C73.2996 35.6699 71.4896 35.6699 69.7396 35.7899C71.4496 33.5699 73.1996 31.4799 74.9996 29.5599ZM52.8196 17.5599C53.5783 17.1564 54.4311 16.963 55.2896 16.9999C57.0913 17.075 58.8582 17.5209 60.4797 18.3099C64.1444 20.0377 67.518 22.325 70.4797 25.0899L71.6497 26.1599C68.7139 29.3112 65.9881 32.6517 63.4896 36.1599C59.2329 36.5723 55.0073 37.2604 50.8396 38.2199C50.3996 36.2799 50.0396 34.3799 49.8396 32.5499C48.7996 24.9999 49.9996 19.2399 52.8096 17.5999L52.8196 17.5599ZM47.5296 68.2599C45.6507 67.6863 43.8017 67.0188 41.9897 66.2599C34.8897 63.2599 30.4897 59.4099 30.4897 56.1199C30.4897 52.8299 34.9096 48.9999 41.9996 46.0499C43.7794 45.3127 45.595 44.6652 47.4397 44.1099C48.6898 48.2529 50.2131 52.3084 51.9996 56.2499C50.2511 60.1522 48.758 64.164 47.5296 68.2599ZM70.5296 87.3599C62.3396 94.6899 57.2196 95.4699 55.3896 95.4699C54.5455 95.498 53.7094 95.2976 52.9697 94.8899C50.1097 93.2599 48.9696 87.5099 49.8796 79.8899C50.1119 77.9471 50.4457 76.0178 50.8796 74.1099C55.0246 75.0647 59.2266 75.7528 63.4596 76.1699C65.9779 79.7103 68.7307 83.0779 71.6996 86.2499L70.5296 87.3599ZM75.0996 82.8499C73.2996 80.9299 71.5296 78.8499 69.7896 76.6199C71.5096 76.6999 73.2596 76.7399 75.0296 76.7399C76.7996 76.7399 78.6096 76.7399 80.3596 76.6299C78.6296 78.8499 76.8696 80.9299 75.0896 82.8499H75.0996ZM97.2796 94.8499C96.5209 95.2656 95.6643 95.4694 94.7997 95.4399C92.9797 95.4399 87.7996 94.6399 79.6396 87.3399L78.4697 86.2699C81.402 83.1183 84.1246 79.7778 86.6197 76.2699C90.8805 75.8633 95.1097 75.1751 99.2796 74.2099C99.7196 76.1499 100.07 78.0499 100.28 79.8799C101.27 87.4199 100.12 93.1799 97.2696 94.8099L97.2796 94.8499ZM108.08 66.4099C106.37 67.1099 104.56 67.7599 102.64 68.3399C101.385 64.1972 99.858 60.1418 98.0696 56.1999C99.8262 52.302 101.326 48.2935 102.56 44.1999C104.439 44.7735 106.288 45.441 108.1 46.1999C115.19 49.1999 119.6 53.0499 119.59 56.3399C119.58 59.6299 115.17 63.4199 108.07 66.3699L108.08 66.4099ZM74.9996 65.3899C76.8153 65.3919 78.5907 64.8554 80.1015 63.8483C81.6122 62.8413 82.7904 61.4088 83.487 59.7322C84.1837 58.0555 84.3675 56.2099 84.0152 54.4288C83.6629 52.6476 82.7904 51.011 81.5079 49.7257C80.2255 48.4405 78.5907 47.5644 76.8104 47.2082C75.03 46.8521 73.184 47.0319 71.5059 47.7249C69.8277 48.4178 68.3927 49.5929 67.3823 51.1014C66.372 52.61 65.8316 54.3843 65.8297 56.1999C65.827 57.4058 66.0623 58.6004 66.5219 59.7152C66.9816 60.8301 67.6566 61.8434 68.5084 62.697C69.3602 63.5506 70.372 64.2279 71.4858 64.6899C72.5997 65.152 73.7937 65.3899 74.9996 65.3899V65.3899ZM5.67965 119.89V9.19988L0.889648 13.9999V124.66H122.94L127.72 119.89H5.67965Z" fill="#09D3AC"/>
</svg>
