<svg width="257" height="228" viewBox="0 0 257 228" fill="none" xmlns="http://www.w3.org/2000/svg">
<path d="M257 114.026C257 97.0657 235.679 80.9924 202.991 71.0249C210.535 37.8347 207.182 11.4287 192.409 2.97459C189.004 0.99153 185.023 0.0521851 180.675 0.0521851V11.6896C183.085 11.6896 185.023 12.1593 186.647 13.0465C193.772 17.117 196.862 32.6162 194.453 52.5512C193.876 57.4566 192.933 62.623 191.781 67.8938C181.513 65.3889 170.303 63.458 158.516 62.2055C151.445 52.5512 144.111 43.7839 136.724 36.1126C153.802 20.3003 169.832 11.6374 180.728 11.6374V0C166.322 0 147.463 10.2284 128.395 27.9716C109.327 10.3328 90.4686 0.208744 76.0628 0.208744V11.8462C86.9064 11.8462 102.989 20.4569 120.066 36.1648C112.732 43.8361 105.398 52.5512 98.4311 62.2055C86.5921 63.458 75.3818 65.3889 65.1144 67.946C63.9095 62.7274 63.019 57.6654 62.3903 52.8121C59.9282 32.8771 62.9666 17.3779 70.0385 13.2552C71.6101 12.3159 73.6531 11.8984 76.0628 11.8984V0.260929C71.6625 0.260929 67.6812 1.20027 64.2238 3.18334C49.5037 11.6374 46.2034 37.9913 53.7992 71.0771C21.2159 81.0968 0 97.1179 0 114.026C0 130.986 21.3206 147.06 54.0088 157.027C46.4653 190.217 49.818 216.623 64.5905 225.078C67.9955 227.061 71.9768 228 76.3771 228C90.7829 228 109.641 217.772 128.71 200.028C147.778 217.667 166.636 227.791 181.042 227.791C185.442 227.791 189.424 226.852 192.881 224.869C207.601 216.415 210.901 190.061 203.306 156.975C235.784 147.008 257 130.934 257 114.026ZM188.795 79.2181C186.857 85.9501 184.447 92.8908 181.723 99.8315C179.575 95.6567 177.323 91.4818 174.861 87.3069C172.451 83.1321 169.884 79.0616 167.317 75.0954C174.756 76.1913 181.933 77.5482 188.795 79.2181ZM164.803 134.796C160.717 141.841 156.526 148.521 152.178 154.731C144.373 155.409 136.462 155.775 128.5 155.775C120.59 155.775 112.68 155.409 104.927 154.783C100.579 148.573 96.3357 141.946 92.2497 134.953C88.2684 128.116 84.6539 121.176 81.3537 114.183C84.6015 107.19 88.2685 100.197 92.1973 93.3605C96.2833 86.3154 100.474 79.6356 104.822 73.4255C112.627 72.7471 120.538 72.3818 128.5 72.3818C136.41 72.3818 144.32 72.7471 152.073 73.3733C156.421 79.5834 160.664 86.211 164.75 93.2039C168.732 100.04 172.346 106.981 175.646 113.974C172.346 120.967 168.732 127.96 164.803 134.796ZM181.723 128.012C184.552 135.005 186.961 141.998 188.952 148.782C182.09 150.452 174.861 151.861 167.37 152.957C169.936 148.938 172.503 144.816 174.913 140.589C177.323 136.414 179.575 132.187 181.723 128.012ZM128.605 183.694C123.733 178.684 118.861 173.1 114.042 166.995C118.756 167.203 123.576 167.36 128.448 167.36C133.372 167.36 138.244 167.256 143.011 166.995C138.296 173.1 133.424 178.684 128.605 183.694ZM89.6304 152.957C82.1918 151.861 75.0151 150.504 68.1527 148.834C70.0909 142.102 72.5006 135.161 75.2246 128.221C77.3724 132.396 79.6249 136.57 82.087 140.745C84.5491 144.92 87.0636 148.991 89.6304 152.957ZM128.343 44.358C133.215 49.3678 138.086 54.9517 142.906 61.0574C138.191 60.8487 133.372 60.6921 128.5 60.6921C123.576 60.6921 118.704 60.7965 113.937 61.0574C118.652 54.9517 123.523 49.3678 128.343 44.358ZM89.5781 75.0954C87.0112 79.1137 84.4443 83.2364 82.0346 87.4635C79.6249 91.6384 77.3724 95.8132 75.2246 99.9881C72.3958 92.9952 69.9861 86.0023 67.9955 79.2181C74.8579 77.6004 82.087 76.1913 89.5781 75.0954ZM42.1698 140.432C23.6256 132.552 11.6294 122.219 11.6294 114.026C11.6294 105.833 23.6256 95.4479 42.1698 87.62C46.6749 85.6892 51.5991 83.967 56.6804 82.3493C59.6663 92.5777 63.5952 103.224 68.467 114.13C63.6476 124.985 59.7711 135.579 56.8376 145.755C51.6515 144.137 46.7273 142.363 42.1698 140.432ZM70.3528 215.006C63.2285 210.935 60.1378 195.436 62.5475 175.501C63.1237 170.596 64.0667 165.429 65.2191 160.158C75.4866 162.663 86.6969 164.594 98.4835 165.847C105.555 175.501 112.889 184.268 120.276 191.94C103.198 207.752 87.1684 216.415 76.2723 216.415C73.915 216.363 71.9244 215.893 70.3528 215.006ZM194.61 175.24C197.072 195.175 194.033 210.674 186.961 214.797C185.39 215.736 183.347 216.154 180.937 216.154C170.094 216.154 154.011 207.543 136.934 191.835C144.268 184.164 151.602 175.449 158.569 165.794C170.408 164.542 181.618 162.611 191.886 160.054C193.09 165.325 194.033 170.387 194.61 175.24ZM214.778 140.432C210.273 142.363 205.349 144.085 200.267 145.703C197.281 135.474 193.352 124.829 188.481 113.922C193.3 103.067 197.177 92.4733 200.11 82.2971C205.296 83.9148 210.22 85.6892 214.83 87.62C233.374 95.5001 245.371 105.833 245.371 114.026C245.318 122.219 233.322 132.604 214.778 140.432Z" fill="#61DAFB"/>
<path d="M128.5 138C141.479 138 152 127.255 152 114C152 100.745 141.479 90 128.5 90C115.521 90 105 100.745 105 114C105 127.255 115.521 138 128.5 138Z" fill="#61DAFB"/>
</svg>
