<svg width="323" height="79" viewBox="0 0 323 79" fill="none" xmlns="http://www.w3.org/2000/svg">
<ellipse cx="39.3207" cy="39.164" rx="28.8352" ry="28.7203" fill="#181C22"/>
<path fill-rule="evenodd" clip-rule="evenodd" d="M39.3207 78.3281C61.0369 78.3281 78.6414 60.7938 78.6414 39.1641C78.6414 17.5344 61.0369 0 39.3207 0C17.6045 0 0 17.5344 0 39.1641C0 60.7938 17.6045 78.3281 39.3207 78.3281ZM39.3207 67.8844C55.246 67.8844 68.1559 55.0259 68.1559 39.1641C68.1559 23.3023 55.246 10.4438 39.3207 10.4438C23.3955 10.4438 10.4855 23.3023 10.4855 39.1641C10.4855 55.0259 23.3955 67.8844 39.3207 67.8844Z" fill="#248DE0"/>
<path d="M41.6962 41.5297L79.1319 64.8256L65.0853 78.8162L41.6962 41.5297Z" fill="#F8FAFF"/>
<path fill-rule="evenodd" clip-rule="evenodd" d="M72.2652 60.5525L63.3692 55.0166C61.231 58.2282 58.4615 60.9866 55.2372 63.1164L60.7952 71.977C65.367 69.0027 69.2791 65.1062 72.2652 60.5525Z" fill="#5AFBE2"/>
<path d="M111.143 39.2999C111.143 41.3795 111.422 43.2494 111.981 44.9096C112.541 46.5523 113.336 47.9504 114.367 49.1038C115.415 50.2397 116.674 51.1135 118.142 51.7252C119.627 52.3368 121.296 52.6426 123.148 52.6426C125.001 52.6426 126.661 52.3368 128.129 51.7252C129.614 51.1135 130.873 50.2397 131.904 49.1038C132.935 47.9504 133.73 46.5523 134.289 44.9096C134.848 43.2494 135.128 41.3795 135.128 39.2999C135.128 37.2203 134.848 35.3591 134.289 33.7164C133.73 32.0562 132.935 30.6494 131.904 29.496C130.873 28.3426 129.614 27.4601 128.129 26.8485C126.661 26.2368 125.001 25.931 123.148 25.931C121.296 25.931 119.627 26.2368 118.142 26.8485C116.674 27.4601 115.415 28.3426 114.367 29.496C113.336 30.6494 112.541 32.0562 111.981 33.7164C111.422 35.3591 111.143 37.2203 111.143 39.2999ZM144.303 65.6708H138.483C137.645 65.6708 136.884 65.5572 136.203 65.33C135.539 65.1028 134.927 64.6834 134.368 64.0718L128.811 57.9378C127.919 58.1824 127.002 58.3659 126.058 58.4883C125.132 58.6106 124.162 58.6718 123.148 58.6718C120.282 58.6718 117.67 58.1912 115.311 57.23C112.951 56.2514 110.924 54.897 109.229 53.1669C107.551 51.4368 106.249 49.3922 105.323 47.0329C104.397 44.6562 103.934 42.0786 103.934 39.2999C103.934 36.5213 104.397 33.9523 105.323 31.5931C106.249 29.2164 107.551 27.163 109.229 25.4329C110.924 23.7028 112.951 22.3572 115.311 21.396C117.67 20.4174 120.282 19.9281 123.148 19.9281C125.071 19.9281 126.88 20.1553 128.575 20.6096C130.27 21.0465 131.825 21.6756 133.241 22.497C134.656 23.3009 135.923 24.2883 137.042 25.4591C138.178 26.6125 139.139 27.9057 139.925 29.3388C140.712 30.7718 141.306 32.3271 141.708 34.0048C142.127 35.6824 142.337 37.4475 142.337 39.2999C142.337 40.9951 142.162 42.6203 141.813 44.1756C141.463 45.7135 140.956 47.1553 140.292 48.5009C139.646 49.8465 138.85 51.0873 137.907 52.2232C136.963 53.3417 135.888 54.329 134.682 55.1854L144.303 65.6708Z" fill="#F8FAFF"/>
<path d="M171.023 31.3572V58.2523H167.065C166.209 58.2523 165.667 57.8591 165.44 57.0727L164.994 54.9232C163.893 56.0417 162.679 56.9504 161.351 57.6494C160.022 58.331 158.458 58.6718 156.658 58.6718C155.19 58.6718 153.888 58.4271 152.753 57.9378C151.634 57.431 150.69 56.7232 149.921 55.8145C149.153 54.9057 148.567 53.831 148.165 52.5902C147.781 51.332 147.588 49.9514 147.588 48.4485V31.3572H154.063V48.4485C154.063 50.0912 154.439 51.3669 155.19 52.2756C155.959 53.1669 157.104 53.6125 158.624 53.6125C159.743 53.6125 160.791 53.3679 161.77 52.8786C162.749 52.3718 163.675 51.6815 164.549 50.8077V31.3572H171.023Z" fill="#F8FAFF"/>
<path d="M192.379 46.7708C190.509 46.8582 188.936 47.0242 187.661 47.2689C186.385 47.496 185.363 47.7931 184.594 48.1601C183.825 48.5271 183.274 48.9553 182.942 49.4446C182.61 49.9339 182.444 50.4669 182.444 51.0436C182.444 52.1795 182.776 52.9922 183.44 53.4815C184.122 53.9708 185.004 54.2155 186.088 54.2155C187.416 54.2155 188.561 53.9795 189.522 53.5077C190.501 53.0184 191.453 52.2844 192.379 51.3057V46.7708ZM177.542 35.1057C180.636 32.2747 184.358 30.8591 188.709 30.8591C190.282 30.8591 191.689 31.1213 192.93 31.6455C194.17 32.1523 195.219 32.8689 196.075 33.7951C196.932 34.7038 197.578 35.796 198.015 37.0718C198.469 38.3475 198.697 39.7456 198.697 41.2659V58.2523H195.761C195.149 58.2523 194.677 58.165 194.345 57.9902C194.013 57.798 193.751 57.4223 193.559 56.863L192.982 54.9232C192.301 55.5349 191.636 56.0766 190.99 56.5485C190.343 57.0028 189.67 57.3873 188.971 57.7019C188.272 58.0164 187.521 58.2524 186.717 58.4096C185.931 58.5844 185.057 58.6718 184.096 58.6718C182.96 58.6718 181.911 58.5232 180.95 58.2261C179.989 57.9116 179.159 57.4485 178.46 56.8368C177.761 56.2252 177.219 55.465 176.835 54.5562C176.45 53.6475 176.258 52.5902 176.258 51.3844C176.258 50.7028 176.371 50.03 176.599 49.3659C176.826 48.6844 177.193 48.0378 177.7 47.4261C178.224 46.8145 178.897 46.2378 179.718 45.696C180.539 45.1543 181.544 44.6824 182.733 44.2805C183.938 43.8786 185.336 43.5553 186.927 43.3106C188.517 43.0485 190.335 42.8912 192.379 42.8388V41.2659C192.379 39.4659 191.995 38.1378 191.226 37.2815C190.457 36.4077 189.347 35.9708 187.897 35.9708C186.848 35.9708 185.974 36.0931 185.275 36.3378C184.594 36.5824 183.991 36.8621 183.467 37.1766C182.942 37.4737 182.462 37.7446 182.025 37.9892C181.605 38.2339 181.134 38.3562 180.609 38.3562C180.155 38.3562 179.77 38.2426 179.456 38.0155C179.141 37.7708 178.888 37.4912 178.696 37.1766L177.542 35.1057Z" fill="#F8FAFF"/>
<path d="M211.631 36.0232C212.469 34.4155 213.465 33.1572 214.619 32.2485C215.772 31.3223 217.135 30.8591 218.708 30.8591C219.949 30.8591 220.945 31.13 221.697 31.6718L221.277 36.5213C221.19 36.8358 221.059 37.063 220.884 37.2028C220.727 37.3252 220.508 37.3863 220.229 37.3863C219.966 37.3863 219.573 37.3426 219.049 37.2553C218.542 37.1679 218.044 37.1242 217.555 37.1242C216.838 37.1242 216.2 37.229 215.641 37.4388C215.082 37.6485 214.575 37.9543 214.121 38.3562C213.684 38.7407 213.291 39.2125 212.941 39.7718C212.609 40.331 212.295 40.9689 211.998 41.6854V58.2523H205.523V31.3572H209.324C209.988 31.3572 210.451 31.4795 210.713 31.7242C210.975 31.9514 211.15 32.3708 211.237 32.9824L211.631 36.0232Z" fill="#F8FAFF"/>
<path d="M232.283 19.299V41.6067H233.489C233.926 41.6067 234.267 41.5543 234.512 41.4494C234.774 41.3271 235.036 41.0912 235.298 40.7417L241.983 32.4844C242.262 32.1174 242.568 31.8378 242.9 31.6455C243.249 31.4533 243.695 31.3572 244.237 31.3572H250.161L241.799 41.3446C241.205 42.131 240.558 42.7339 239.859 43.1533C240.226 43.4155 240.549 43.7213 240.829 44.0708C241.126 44.4203 241.406 44.796 241.668 45.198L250.633 58.2523H244.787C244.281 58.2523 243.844 58.1737 243.477 58.0164C243.11 57.8417 242.804 57.5358 242.559 57.099L235.691 46.9019C235.447 46.4999 235.193 46.2378 234.931 46.1155C234.669 45.9931 234.276 45.932 233.751 45.932H232.283V58.2523H225.809V19.299H232.283Z" fill="#F8FAFF"/>
<path d="M261.096 19.299V58.2523H254.621V19.299H261.096Z" fill="#F8FAFF"/>
<path d="M292.706 31.3572L278.053 65.6446C277.86 66.099 277.607 66.4397 277.292 66.6669C276.995 66.9116 276.532 67.0339 275.903 67.0339H271.08L276.113 56.2339L265.234 31.3572H270.923C271.429 31.3572 271.823 31.4795 272.102 31.7242C272.399 31.9689 272.618 32.2485 272.757 32.563L278.472 46.5087C278.664 46.9805 278.822 47.4523 278.944 47.9242C279.084 48.396 279.215 48.8766 279.337 49.3659C279.494 48.8766 279.652 48.396 279.809 47.9242C279.966 47.4349 280.141 46.9543 280.333 46.4824L285.733 32.563C285.873 32.2135 286.1 31.9252 286.415 31.698C286.747 31.4708 287.114 31.3572 287.516 31.3572H292.706Z" fill="#F8FAFF"/>
<path d="M305.048 34.664V14.088C305.048 12.9786 305.197 11.944 305.496 10.984C305.795 10.024 306.243 9.19196 306.84 8.48796C307.459 7.76263 308.227 7.19729 309.144 6.79196C310.083 6.38663 311.192 6.18396 312.472 6.18396C313.347 6.18396 314.2 6.30129 315.032 6.53596C315.864 6.77063 316.6 7.13329 317.24 7.62396C317.901 8.09329 318.424 8.69063 318.808 9.41596C319.213 10.1413 319.416 11.0053 319.416 12.008C319.416 13.096 319.181 14.0346 318.712 14.824C318.264 15.592 317.603 16.2533 316.728 16.808V16.936C317.325 17.064 317.891 17.288 318.424 17.608C318.957 17.928 319.416 18.3333 319.8 18.824C320.205 19.3146 320.515 19.88 320.728 20.52C320.963 21.16 321.08 21.8533 321.08 22.6C321.08 23.7733 320.888 24.7866 320.504 25.64C320.141 26.4933 319.651 27.1973 319.032 27.752C318.435 28.3066 317.752 28.7226 316.984 29C316.237 29.256 315.48 29.384 314.712 29.384C313.837 29.384 312.941 29.2453 312.024 28.968C311.128 28.6693 310.275 28.0933 309.464 27.24C309.528 28.52 309.581 29.768 309.624 30.984C309.688 32.2213 309.752 33.448 309.816 34.664H305.048ZM313.336 25.544C314.189 25.544 314.925 25.2773 315.544 24.744C316.163 24.2106 316.472 23.4 316.472 22.312C316.472 21.48 316.227 20.7653 315.736 20.168C315.245 19.5706 314.499 19.272 313.496 19.272C313.027 19.272 312.6 19.336 312.216 19.464L311.64 16.04C312.877 15.8693 313.731 15.4533 314.2 14.792C314.669 14.1306 314.904 13.352 314.904 12.456C314.904 11.5813 314.659 10.9413 314.168 10.536C313.677 10.1093 313.112 9.89596 312.472 9.89596C311.533 9.89596 310.829 10.3013 310.36 11.112C309.891 11.9226 309.635 13.0106 309.592 14.376C309.549 15.9333 309.507 17.4693 309.464 18.984C309.443 20.4986 309.432 22.0346 309.432 23.592C310.051 24.4026 310.701 24.936 311.384 25.192C312.067 25.4266 312.717 25.544 313.336 25.544Z" fill="#5AFBE2"/>
</svg>
