<svg width="127" height="100" viewBox="0 0 127 100" fill="none" xmlns="http://www.w3.org/2000/svg">
<ellipse cx="49.3718" cy="49.1752" rx="36.206" ry="36.0618" fill="#181C22"/>
<path fill-rule="evenodd" clip-rule="evenodd" d="M49.3718 98.3503C76.6391 98.3503 98.7436 76.3338 98.7436 49.1751C98.7436 22.0165 76.6391 0 49.3718 0C22.1045 0 0 22.0165 0 49.1751C0 76.3338 22.1045 98.3503 49.3718 98.3503ZM49.3718 85.2369C69.3679 85.2369 85.5778 69.0915 85.5778 49.1751C85.5778 29.2588 69.3679 13.1134 49.3718 13.1134C29.3758 13.1134 13.1658 29.2588 13.1658 49.1751C13.1658 69.0915 29.3758 85.2369 49.3718 85.2369Z" fill="#248DE0"/>
<path d="M52.3546 52.1455L99.3594 81.3962L81.7223 98.9631L52.3546 52.1455Z" fill="#F8FAFF"/>
<path fill-rule="evenodd" clip-rule="evenodd" d="M90.7376 76.0309L79.5676 69.08C76.8827 73.1125 73.4054 76.576 69.3568 79.2503L76.3356 90.3758C82.076 86.6412 86.9881 81.7486 90.7376 76.0309Z" fill="#5AFBE2"/>
<path d="M110.048 33.664V13.088C110.048 11.9786 110.197 10.944 110.496 9.98396C110.795 9.02396 111.243 8.19196 111.84 7.48796C112.459 6.76263 113.227 6.19729 114.144 5.79196C115.083 5.38663 116.192 5.18396 117.472 5.18396C118.347 5.18396 119.2 5.30129 120.032 5.53596C120.864 5.77063 121.6 6.13329 122.24 6.62396C122.901 7.09329 123.424 7.69063 123.808 8.41596C124.213 9.14129 124.416 10.0053 124.416 11.008C124.416 12.096 124.181 13.0346 123.712 13.824C123.264 14.592 122.603 15.2533 121.728 15.808V15.936C122.325 16.064 122.891 16.288 123.424 16.608C123.957 16.928 124.416 17.3333 124.8 17.824C125.205 18.3146 125.515 18.88 125.728 19.52C125.963 20.16 126.08 20.8533 126.08 21.6C126.08 22.7733 125.888 23.7866 125.504 24.64C125.141 25.4933 124.651 26.1973 124.032 26.752C123.435 27.3066 122.752 27.7226 121.984 28C121.237 28.256 120.48 28.384 119.712 28.384C118.837 28.384 117.941 28.2453 117.024 27.968C116.128 27.6693 115.275 27.0933 114.464 26.24C114.528 27.52 114.581 28.768 114.624 29.984C114.688 31.2213 114.752 32.448 114.816 33.664H110.048ZM118.336 24.544C119.189 24.544 119.925 24.2773 120.544 23.744C121.163 23.2106 121.472 22.4 121.472 21.312C121.472 20.48 121.227 19.7653 120.736 19.168C120.245 18.5706 119.499 18.272 118.496 18.272C118.027 18.272 117.6 18.336 117.216 18.464L116.64 15.04C117.877 14.8693 118.731 14.4533 119.2 13.792C119.669 13.1306 119.904 12.352 119.904 11.456C119.904 10.5813 119.659 9.94129 119.168 9.53596C118.677 9.10929 118.112 8.89596 117.472 8.89596C116.533 8.89596 115.829 9.30129 115.36 10.112C114.891 10.9226 114.635 12.0106 114.592 13.376C114.549 14.9333 114.507 16.4693 114.464 17.984C114.443 19.4986 114.432 21.0346 114.432 22.592C115.051 23.4026 115.701 23.936 116.384 24.192C117.067 24.4266 117.717 24.544 118.336 24.544Z" fill="#5AFBE2"/>
</svg>
