<svg width="127" height="100" viewBox="0 0 127 100" fill="none" xmlns="http://www.w3.org/2000/svg">
<ellipse cx="49.5004" cy="49.3033" rx="36.3003" ry="36.1557" fill="#181C22"/>
<path fill-rule="evenodd" clip-rule="evenodd" d="M49.5004 98.6064C76.8387 98.6064 99.0008 76.5326 99.0008 49.3032C99.0008 22.0738 76.8387 0 49.5004 0C22.1621 0 0 22.0738 0 49.3032C0 76.5326 22.1621 98.6064 49.5004 98.6064ZM49.5004 85.459C69.5485 85.459 85.8007 69.2715 85.8007 49.3033C85.8007 29.335 69.5485 13.1476 49.5004 13.1476C29.4523 13.1476 13.2001 29.335 13.2001 49.3033C13.2001 69.2715 29.4523 85.459 49.5004 85.459Z" fill="#248DE0"/>
<path d="M52.491 52.2812L99.6183 81.6081L81.9352 99.2207L52.491 52.2812Z" fill="#5AFBE2"/>
<path fill-rule="evenodd" clip-rule="evenodd" d="M90.9739 76.2289L79.7748 69.2598C77.083 73.3028 73.5966 76.7753 69.5375 79.4566L76.5345 90.611C82.2899 86.8667 87.2147 81.9614 90.9739 76.2289Z" fill="white"/>
<path d="M110.048 33.664V13.088C110.048 11.9786 110.197 10.944 110.496 9.98396C110.795 9.02396 111.243 8.19196 111.84 7.48796C112.459 6.76263 113.227 6.19729 114.144 5.79196C115.083 5.38663 116.192 5.18396 117.472 5.18396C118.347 5.18396 119.2 5.30129 120.032 5.53596C120.864 5.77063 121.6 6.13329 122.24 6.62396C122.901 7.09329 123.424 7.69063 123.808 8.41596C124.213 9.14129 124.416 10.0053 124.416 11.008C124.416 12.096 124.181 13.0346 123.712 13.824C123.264 14.592 122.603 15.2533 121.728 15.808V15.936C122.325 16.064 122.891 16.288 123.424 16.608C123.957 16.928 124.416 17.3333 124.8 17.824C125.205 18.3146 125.515 18.88 125.728 19.52C125.963 20.16 126.08 20.8533 126.08 21.6C126.08 22.7733 125.888 23.7866 125.504 24.64C125.141 25.4933 124.651 26.1973 124.032 26.752C123.435 27.3066 122.752 27.7226 121.984 28C121.237 28.256 120.48 28.384 119.712 28.384C118.837 28.384 117.941 28.2453 117.024 27.968C116.128 27.6693 115.275 27.0933 114.464 26.24C114.528 27.52 114.581 28.768 114.624 29.984C114.688 31.2213 114.752 32.448 114.816 33.664H110.048ZM118.336 24.544C119.189 24.544 119.925 24.2773 120.544 23.744C121.163 23.2106 121.472 22.4 121.472 21.312C121.472 20.48 121.227 19.7653 120.736 19.168C120.245 18.5706 119.499 18.272 118.496 18.272C118.027 18.272 117.6 18.336 117.216 18.464L116.64 15.04C117.877 14.8693 118.731 14.4533 119.2 13.792C119.669 13.1306 119.904 12.352 119.904 11.456C119.904 10.5813 119.659 9.94129 119.168 9.53596C118.677 9.10929 118.112 8.89596 117.472 8.89596C116.533 8.89596 115.829 9.30129 115.36 10.112C114.891 10.9226 114.635 12.0106 114.592 13.376C114.549 14.9333 114.507 16.4693 114.464 17.984C114.443 19.4986 114.432 21.0346 114.432 22.592C115.051 23.4026 115.701 23.936 116.384 24.192C117.067 24.4266 117.717 24.544 118.336 24.544Z" fill="#5AFBE2"/>
</svg>
